PathFileType	4	(X/Y/Z)	 s05c0102.trc
DataRate	CameraRate	NumFrames	NumMarkers	Units	OrigDataRate	OrigDataStartFrame	OrigNumFrames
200	200	5	50	mm	200	1	2000
Frame#	Time	racr			lacr			c7			jug			rlel			rdr			llel			ldr			s2			lic			ric			lasi			rasi			rpsi			lpsi			rgt			lgt			rth1			rth2			rth3			rth4			rlfc			rmfc			rsh1			rsh2			rsh3			rsh4			rlmal			rmmal			rcal			rtoe			rmt5			lth1			lth2			lth4			lth3			llfc			lmfc			lsh1			lsh2			lsh3			lsh4			llmal			lmmal			lcal			ltoe			lmt5			SBIKE			LBIKE			RBIKE			
		X1	Y1	Z1	X2	Y2	Z2	X3	Y3	Z3	X4	Y4	Z4	X5	Y5	Z5	X6	Y6	Z6	X7	Y7	Z7	X8	Y8	Z8	X9	Y9	Z9	X10	Y10	Z10	X11	Y11	Z11	X12	Y12	Z12	X13	Y13	Z13	X14	Y14	Z14	X15	Y15	Z15	X16	Y16	Z16	X17	Y17	Z17	X18	Y18	Z18	X19	Y19	Z19	X20	Y20	Z20	X21	Y21	Z21	X22	Y22	Z22	X23	Y23	Z23	X24	Y24	Z24	X25	Y25	Z25	X26	Y26	Z26	X27	Y27	Z27	X28	Y28	Z28	X29	Y29	Z29	X30	Y30	Z30	X31	Y31	Z31	X32	Y32	Z32	X33	Y33	Z33	X34	Y34	Z34	X35	Y35	Z35	X36	Y36	Z36	X37	Y37	Z37	X38	Y38	Z38	X39	Y39	Z39	X40	Y40	Z40	X41	Y41	Z41	X42	Y42	Z42	X43	Y43	Z43	X44	Y44	Z44	X45	Y45	Z45	X46	Y46	Z46	X47	Y47	Z47	X48	Y48	Z48	X49	Y49	Z49	X50	Y50	Z50	
1	0.0050	414.728884	1359.366912	-124.092402	428.780683	1380.887325	-399.357660	394.003897	1448.614668	-264.107648	378.483802	1292.840918	-266.562860	526.278868	1122.953892	-46.225220	700.583644	917.681223	-84.429471	525.282260	1129.887350	-487.265011	761.576324	1030.212343	-451.202356	-133.611993	1169.799337	-261.796506	20.037096	1175.694045	-402.844348	25.354729	1191.255886	-124.370550	64.056452	1120.463105	-369.242727	56.465528	1126.909920	-150.996739	-95.851039	1215.640311	-220.587050	-93.032491	1216.671609	-306.689211	-33.335590	1064.644844	-87.630356	-59.678334	1075.144941	-433.003268	63.893504	997.325248	-71.756761	150.317696	974.967477	-64.267086	212.198515	911.757540	-67.611655	168.279341	1005.709016	-74.862405	340.865171	828.697044	-91.593441	332.880716	826.948770	-201.865345	288.194077	730.129253	-71.761970	292.257425	641.840387	-84.661368	254.607294	565.126771	-92.901489	322.992278	639.404978	-108.506711	233.410671	432.502419	-109.247582	243.335280	467.632230	-185.728090	167.325834	394.009773	-156.917878	462.350434	403.019105	-144.876550	363.211515	367.781263	-82.791612	26.748813	963.435403	-457.636393	102.476407	922.205022	-461.598331	129.023623	946.260300	-449.424506	147.941409	844.648433	-467.027860	234.516312	721.038343	-441.800231	228.255081	711.589603	-332.478995	142.270028	635.040717	-461.213247	103.628803	557.278892	-447.236596	29.134437	509.268684	-444.010982	128.932012	540.026097	-424.197823	-47.291003	413.350460	-431.825906	-11.863500	432.917979	-356.595255	-119.509545	395.384740	-387.820764	149.225384	277.108812	-395.865966	38.863042	290.557020	-458.062035	-215.601655	913.669204	-268.093437	-43.645993	85.021480	-474.877737	-51.615810	79.719886	-77.380636	
2	0.0100	414.722979	1359.348657	-124.176555	428.727534	1380.812898	-399.401606	394.017448	1448.513500	-264.134561	378.399528	1292.754124	-266.614854	526.293526	1122.952413	-46.285459	700.586493	917.695480	-84.442594	525.193395	1129.826410	-487.402034	761.401497	1030.050406	-451.205118	-133.647318	1169.786466	-261.757386	19.975563	1175.723520	-402.809424	25.332414	1191.260433	-124.351649	64.001993	1120.507558	-369.249968	56.454602	1126.919540	-151.018837	-95.897822	1215.704032	-220.591578	-93.106482	1216.678329	-306.654192	-33.367320	1064.646116	-87.613611	-59.720564	1075.157849	-432.962234	63.900999	997.355765	-71.738170	150.343786	975.000318	-64.231463	212.194880	911.803917	-67.552536	168.295691	1005.764907	-74.828658	340.857007	828.757501	-91.542299	332.889849	826.999004	-201.840937	288.222811	730.171380	-71.715468	292.263669	641.905698	-84.657075	254.606573	565.204163	-92.865753	323.001304	639.461262	-108.486448	233.395505	432.593414	-109.234657	243.349424	467.700604	-185.712313	167.344290	394.035309	-156.926854	462.325225	403.079466	-144.878958	363.191922	367.816877	-82.789502	26.721281	963.456556	-457.628527	102.450108	922.221864	-461.589574	129.002561	946.277408	-449.406466	147.896486	844.659925	-467.017719	234.471284	721.039469	-441.765823	228.188422	711.597418	-332.479954	142.250825	635.008784	-461.207974	103.618256	557.253327	-447.231279	29.136605	509.225816	-443.988263	128.919013	540.002758	-424.177146	-47.286142	413.302212	-431.815138	-11.863620	432.885777	-356.607890	-119.486574	395.332813	-387.815010	149.233283	277.060778	-395.869821	38.886552	290.499212	-458.041542	-215.589438	913.671106	-268.085414	-43.643507	85.115810	-474.933223	-51.641426	79.740629	-77.381592	
3	0.0150	414.729475	1359.307523	-124.270154	428.660842	1380.755338	-399.435689	394.013854	1448.419198	-264.188110	378.362365	1292.660054	-266.673195	526.284090	1122.944542	-46.313340	700.599445	917.699517	-84.432633	525.093382	1129.745049	-487.537352	761.439442	1030.169119	-451.166963	-133.684804	1169.770225	-261.718770	19.878197	1175.742959	-402.805746	25.300034	1191.283383	-124.322447	63.922623	1120.533388	-369.249166	56.414015	1126.926462	-150.964600	-95.933557	1215.678052	-220.551881	-93.158658	1216.683138	-306.620358	-33.362416	1064.646182	-87.589395	-59.774401	1075.171754	-432.947595	63.888620	997.386099	-71.713214	150.333827	975.027582	-64.181235	212.206671	911.827367	-67.504332	168.298461	1005.798544	-74.794699	340.873191	828.796576	-91.495442	332.900658	827.029123	-201.821319	288.234439	730.206948	-71.674706	292.269268	641.958961	-84.624947	254.586815	565.254060	-92.847839	322.999388	639.513812	-108.458643	233.382812	432.641443	-109.222924	243.330307	467.764736	-185.702116	167.327863	394.095659	-156.908387	462.315736	403.134892	-144.883686	363.189599	367.860735	-82.786965	26.694187	963.473874	-457.614396	102.427841	922.233031	-461.571204	128.981396	946.283444	-449.391960	147.847240	844.663797	-466.988992	234.414000	721.037855	-441.760291	228.141109	711.597328	-332.441413	142.245222	634.976489	-461.182401	103.604474	557.214099	-447.200633	29.133560	509.175361	-443.993844	128.906458	539.972125	-424.170989	-47.262220	413.258929	-431.832860	-11.815373	432.784581	-356.599712	-119.476023	395.283298	-387.813376	149.257024	277.013532	-395.865336	38.901538	290.420529	-458.039204	-215.583709	913.674416	-268.083806	-43.659630	85.090155	-474.942745	-51.735456	79.956364	-77.211106	
4	0.0200	414.740116	1359.296988	-124.354259	428.608295	1380.680416	-399.477149	394.029510	1448.317581	-264.234419	378.299807	1292.593773	-266.722601	526.304235	1122.872070	-46.360523	700.592527	917.704509	-84.454216	524.973016	1129.678980	-487.700527	763.498352	1032.611295	-451.170470	-133.715600	1169.769165	-261.688220	19.791376	1175.760740	-402.803764	25.620830	1191.748153	-124.419555	63.743196	1121.063320	-369.334920	56.380599	1126.933886	-150.955482	-95.608409	1215.694988	-220.142224	-93.199549	1216.691348	-306.598317	-33.386038	1064.651057	-87.567028	-59.816873	1075.194862	-432.920298	63.741456	997.706077	-71.653701	150.416081	974.966463	-64.220150	211.791470	912.235005	-67.528362	168.290185	1005.832491	-74.743090	340.873389	828.831208	-91.449911	332.898484	827.053672	-201.771158	288.242740	730.252508	-71.640367	292.247053	641.965494	-85.070205	254.605134	565.297151	-92.831993	323.189011	639.472507	-108.405176	233.036085	433.221787	-108.897199	243.729844	467.611039	-185.840197	167.300288	394.150574	-156.908337	462.294220	403.190144	-144.880399	363.196231	367.905681	-82.793915	26.674243	963.648217	-457.562618	102.392383	922.238201	-461.552124	128.802068	946.127419	-449.170426	147.784145	844.519875	-466.656476	234.369781	721.030879	-441.717977	228.101057	711.583819	-332.424089	142.208314	634.969445	-461.177857	103.600199	557.181054	-447.188956	29.097583	509.129228	-444.009858	128.024660	540.026604	-423.328396	-47.280928	413.283935	-431.893756	-11.823287	432.743336	-356.598129	-119.723588	395.492960	-387.404871	149.268032	276.948744	-395.874234	38.907211	290.367402	-458.037201	-215.725460	913.721521	-268.568570	-43.649166	85.109789	-474.925514	-51.740370	79.947025	-77.218867	
5	0.0250	414.760748	1359.577143	-124.274329	428.456326	1380.949825	-399.492252	394.027166	1448.197109	-264.416604	378.214868	1292.876946	-266.741262	526.152328	1123.094637	-46.176536	700.582789	917.808035	-84.320083	524.842739	1129.784771	-488.008294	761.714452	1028.904065	-451.932470	-133.747472	1169.807432	-261.674568	19.796360	1175.822827	-402.803264	25.357928	1192.050397	-124.434189	63.699679	1121.171621	-369.290362	56.361663	1126.951012	-150.967354	-95.496154	1215.696028	-220.067368	-93.242135	1216.660867	-306.535836	-33.536293	1065.005739	-87.429414	-59.913983	1075.226037	-432.869310	63.760027	997.809538	-71.612155	150.278615	975.248914	-64.104141	211.811507	912.333242	-67.462277	168.215102	1006.098281	-74.624028	340.651744	829.174454	-91.201313	332.935420	827.089602	-201.890554	288.129055	730.512943	-71.530229	292.099634	642.296777	-84.921680	254.445161	565.537893	-92.742737	323.117923	639.698942	-108.307739	232.987394	433.257280	-108.873622	243.199569	467.981184	-185.688318	167.131848	394.341028	-156.700462	462.167884	403.446443	-144.869472	362.982164	368.221481	-82.664110	26.656405	963.691327	-457.567702	102.304950	922.424992	-461.519083	128.715617	946.305331	-449.172650	147.770494	844.549930	-466.659363	234.202617	721.209565	-441.703855	227.854458	711.919324	-332.150470	142.136255	635.085030	-461.132756	103.450425	557.412858	-447.116274	29.085798	509.091922	-444.003544	128.015347	540.066377	-423.345041	-47.300748	413.222880	-431.945505	-11.830244	432.738008	-356.614681	-119.737154	395.431249	-387.434377	149.240774	276.913926	-395.909447	38.920395	290.315315	-458.045028	-215.705578	913.731367	-268.567058	-43.708170	85.004635	-475.003329	-51.882922	80.218249	-77.294090	
